<?xml version="1.0" standalone="no"?>
<!DOCTYPE svg PUBLIC "-//W3C//DTD SVG 20010904//EN"
 "http://www.w3.org/TR/2001/REC-SVG-20010904/DTD/svg10.dtd">
<svg version="1.0" xmlns="http://www.w3.org/2000/svg"
 width="392.000000pt" height="208.000000pt" viewBox="0 0 392.000000 208.000000"
 preserveAspectRatio="xMidYMid meet">

<g transform="translate(0.000000,208.000000) scale(0.100000,-0.100000)"
fill="#000000" stroke="none">
<path d="M34 2046 l-34 -34 0 -971 0 -971 29 -32 29 -33 1203 -3 c856 -1 1219
1 1259 9 30 6 75 15 100 20 25 5 70 13 100 18 85 15 164 34 170 41 3 3 24 12
48 19 36 10 41 15 31 27 -9 11 -7 14 14 14 16 0 30 8 36 19 9 16 4 26 -23 57
-34 38 -61 41 -38 4 9 -14 9 -19 0 -22 -19 -7 -58 3 -52 13 3 5 -2 9 -10 9 -9
0 -16 -6 -17 -12 0 -7 -4 -4 -8 7 -6 14 -4 22 8 27 25 10 28 9 34 -12 8 -30
35 -26 30 4 -5 24 -44 43 -64 31 -15 -10 -23 26 -8 37 10 7 4 8 -18 4 -35 -6
-41 1 -20 23 10 11 8 12 -9 7 -27 -8 -53 19 -35 37 9 9 14 9 20 -2 5 -7 19
-15 32 -17 46 -6 73 -14 78 -22 3 -5 13 -9 21 -9 9 0 28 -3 43 -7 44 -11 32
17 -17 38 -34 15 -41 22 -32 32 9 11 15 9 31 -9 23 -25 55 -32 55 -12 0 8 -7
21 -16 29 -13 14 -14 16 0 16 19 0 27 13 17 29 -6 10 -12 9 -25 -4 -16 -17
-21 -9 -10 19 3 9 12 16 20 16 8 0 14 9 14 20 0 12 7 20 16 20 9 0 14 6 11 13
-2 6 -12 11 -21 11 -9 -1 -16 3 -16 8 0 5 -9 6 -20 3 -22 -7 -25 2 -10 25 9
13 10 13 10 0 1 -12 3 -12 14 3 19 24 36 21 36 -7 0 -23 4 -25 39 -23 22 0 37
5 35 9 -3 4 2 8 10 8 9 0 16 7 16 15 0 9 9 15 23 14 15 -1 17 -3 5 -6 -9 -2
-16 -13 -15 -24 1 -14 7 -19 19 -16 10 3 18 1 18 -4 0 -16 15 -10 29 12 9 16
10 24 1 29 -12 7 2 23 30 33 11 3 8 7 -10 15 -22 9 -22 11 -5 12 19 1 19 1 2
15 -18 13 -18 14 2 34 19 19 21 19 30 3 6 -9 11 -12 11 -5 0 7 7 10 15 7 10
-4 15 0 15 15 0 12 -4 21 -9 21 -10 0 -27 39 -23 52 1 5 -5 8 -13 8 -8 0 -15
5 -15 10 0 6 -7 10 -15 10 -8 0 -15 9 -15 20 0 12 -7 20 -17 20 -15 0 -16 -2
-3 -10 9 -6 10 -10 3 -10 -16 0 -26 17 -14 25 19 11 61 -7 61 -26 0 -12 7 -19
19 -19 23 0 34 23 18 40 -10 10 -7 12 11 7 26 -6 28 7 5 36 -12 15 -27 21 -45
19 -29 -3 -35 -11 -19 -27 6 -7 -3 -10 -24 -10 -30 0 -34 3 -29 20 7 19 35 52
41 48 2 -2 14 -3 28 -3 18 0 25 5 25 20 0 11 -7 20 -15 20 -8 0 -15 5 -15 10
0 6 -9 19 -19 29 -12 12 -17 27 -14 40 4 15 1 21 -11 21 -10 0 -16 8 -16 21 0
17 -4 19 -17 13 -18 -8 -43 -9 -133 -6 l-45 2 29 15 c21 11 32 12 41 5 9 -8
15 -8 20 0 3 5 -3 14 -15 18 -20 7 -20 9 -6 21 10 9 16 9 16 3 0 -6 6 -9 14
-6 18 7 29 -25 15 -42 -16 -19 0 -18 22 2 13 12 16 22 9 39 -10 27 -5 35 24
36 20 0 20 1 -1 9 -25 10 -29 20 -12 37 6 6 8 16 5 22 -11 17 -66 13 -72 -4
-4 -8 -10 -15 -15 -15 -5 0 -4 9 3 20 9 15 10 23 2 28 -6 4 -16 17 -22 28 -9
17 -8 24 3 34 9 7 14 32 14 73 0 34 7 103 16 152 8 50 15 115 15 145 0 30 7
93 16 140 9 47 18 111 21 143 5 54 4 59 -13 55 -16 -3 -20 -16 -27 -73 -4 -39
-14 -122 -22 -185 -8 -63 -22 -182 -30 -264 -9 -82 -18 -153 -21 -158 -6 -10
-54 29 -54 44 0 5 -9 18 -20 30 -21 23 -21 69 0 218 9 65 26 225 34 333 l5 57
-109 0 -108 0 -9 -37 c-8 -33 -13 -38 -41 -41 -32 -3 -32 -4 -32 -58 l0 -54
-35 0 -36 0 7 53 c4 28 11 53 15 55 5 2 9 21 9 43 l0 39 -121 0 -122 0 7 -55
c9 -80 1 -102 -35 -100 -21 1 -29 -3 -29 -16 0 -9 7 -19 15 -23 12 -4 9 -15
-20 -54 -38 -53 -42 -67 -22 -76 6 -3 -2 -5 -19 -3 -25 3 -31 0 -26 -11 4 -12
0 -14 -19 -9 -13 4 -30 7 -36 7 -7 0 -13 6 -13 13 0 6 -22 25 -50 40 -39 22
-54 26 -69 17 -11 -5 -32 -10 -46 -10 -24 0 -26 3 -23 33 l3 32 -77 1 c-42 1
-82 -2 -88 -6 -15 -9 27 -55 63 -69 48 -18 31 -52 -33 -67 -40 -9 -64 -7 -102
8 -19 7 -37 7 -57 0 -26 -9 -28 -8 -23 10 4 15 0 19 -14 18 -47 -5 -55 -1 -53
28 2 15 -1 43 -5 63 -6 27 -3 43 12 70 16 28 17 38 7 56 -9 17 -14 20 -23 11
-9 -9 -15 -9 -23 -1 -13 13 -4 33 17 33 9 0 14 11 14 30 l0 30 -93 0 c-52 0
-96 -3 -100 -6 -3 -3 -1 -18 5 -33 10 -25 13 -55 22 -233 5 -92 -5 -106 -83
-115 l-51 -6 0 54 c-1 84 -11 262 -18 327 -2 9 -135 12 -628 12 l-626 0 -34
-34z m2476 -177 c0 -27 -2 -30 -15 -19 -11 9 -12 17 -4 31 14 27 19 24 19 -12z
m-103 -1 c-3 -8 -6 -5 -6 6 -1 11 2 17 5 13 3 -3 4 -12 1 -19z m323 -98 c0
-67 -4 -110 -10 -110 -6 0 -10 43 -10 110 0 67 4 110 10 110 6 0 10 -43 10
-110z m-180 -16 c0 -2 -9 -4 -20 -4 -11 0 -20 4 -20 9 0 5 9 7 20 4 11 -3 20
-7 20 -9z m-301 -34 c12 0 25 -9 62 -42 10 -10 24 -18 29 -18 6 0 10 -5 10
-10 0 -6 12 -21 27 -34 35 -31 16 -40 -33 -16 -21 11 -42 20 -46 20 -18 0 -5
-17 32 -39 24 -15 35 -28 29 -32 -14 -8 -3 -29 15 -29 8 0 19 -7 26 -15 24
-29 31 -15 10 20 -12 19 -19 35 -15 35 17 0 128 -124 131 -145 4 -37 13 -48
30 -34 12 10 18 8 31 -11 9 -13 25 -32 35 -42 10 -10 18 -22 18 -28 0 -5 5
-10 10 -10 7 0 8 -13 4 -35 -3 -19 -2 -35 2 -35 5 0 19 -3 30 -6 16 -4 23 0
27 15 7 27 37 28 37 1 0 -11 -7 -20 -15 -20 -17 0 -20 -35 -4 -45 6 -4 13 1
15 12 4 14 14 18 49 18 24 0 47 -4 52 -9 4 -5 -2 -5 -14 -2 -17 6 -23 3 -23
-8 0 -9 5 -16 11 -16 6 0 27 -7 46 -17 29 -13 36 -14 43 -2 5 7 13 10 17 5 4
-4 0 -14 -11 -21 -10 -8 -15 -18 -12 -23 7 -12 -100 -21 -117 -10 -7 5 -3 8
11 8 15 0 22 6 22 19 0 21 -38 50 -58 43 -10 -3 -10 -8 3 -22 14 -15 14 -18 1
-23 -9 -4 -17 1 -21 13 -7 21 -18 25 -85 35 -25 3 -40 3 -35 -2 6 -4 10 -15
10 -23 0 -8 8 -16 17 -18 13 -3 16 1 12 13 -5 13 -2 16 12 13 10 -2 20 -13 22
-25 2 -15 13 -24 40 -30 25 -6 38 -15 40 -28 2 -14 0 -16 -6 -7 -6 9 -19 10
-48 3 -21 -5 -33 -9 -26 -10 15 -1 6 -21 -10 -21 -6 0 -8 13 -6 29 4 30 -6 39
-56 45 -11 2 -27 13 -37 24 -22 27 -41 28 -57 2 -7 -12 -17 -18 -22 -15 -5 3
-19 0 -30 -7 -17 -11 -22 -11 -30 2 -7 12 -13 12 -32 1 -13 -7 -28 -11 -34
-10 -5 1 -22 -1 -38 -6 -20 -5 -31 -4 -37 6 -8 12 -11 11 -20 -3 -5 -10 -19
-18 -30 -18 -11 0 -35 -7 -55 -15 -34 -14 -64 -11 -64 6 0 4 7 6 15 3 21 -8
45 20 52 61 5 33 6 34 22 17 21 -25 57 -43 65 -34 4 4 15 7 23 7 9 0 18 6 20
13 3 7 -4 12 -18 12 -32 0 -98 48 -105 76 -4 13 -12 24 -19 24 -7 0 -15 11
-17 24 -5 24 -4 24 18 8 13 -9 29 -29 36 -44 7 -15 16 -24 20 -22 11 7 45 -30
40 -44 -2 -7 1 -12 7 -12 17 0 13 28 -6 38 -12 7 -14 18 -10 43 5 22 4 29 -2
20 -5 -8 -16 -11 -25 -8 -14 5 -15 11 -6 27 13 25 5 40 -21 40 -23 0 -25 13
-4 30 12 10 22 10 39 2 27 -12 41 -5 25 14 -16 19 9 29 29 11 9 -8 27 -20 40
-26 21 -11 22 -10 22 23 0 19 -7 42 -16 50 -8 9 -17 27 -18 40 -1 13 -11 32
-21 42 -17 17 -17 19 -2 22 21 4 23 32 2 32 -8 0 -15 5 -15 10 0 6 -6 10 -13
10 -21 0 -54 40 -40 48 16 10 3 29 -21 33 -11 2 -21 10 -24 17 -3 11 0 12 18
2 12 -6 25 -9 28 -5 9 8 -24 34 -60 47 -16 5 -28 17 -28 25 0 12 7 11 34 -6
18 -12 39 -21 45 -21z m628 -82 c-3 -8 -6 -5 -6 6 -1 11 2 17 5 13 3 -3 4 -12
1 -19z m-91 -9 c3 -5 -8 -9 -25 -9 -22 0 -29 4 -25 14 5 14 40 11 50 -5z
m-596 -14 c0 -8 -2 -15 -4 -15 -2 0 -6 7 -10 15 -3 8 -1 15 4 15 6 0 10 -7 10
-15z m-65 -15 c3 -5 1 -10 -4 -10 -6 0 -11 5 -11 10 0 6 2 10 4 10 3 0 8 -4
11 -10z m10 -90 c3 -5 -1 -10 -9 -10 -9 0 -16 5 -16 10 0 6 4 10 9 10 6 0 13
-4 16 -10z m145 0 c0 -5 -7 -7 -15 -4 -8 4 -15 8 -15 10 0 2 7 4 15 4 8 0 15
-4 15 -10z m-100 -46 c0 -20 -7 -17 -20 6 -9 16 -8 18 5 14 8 -4 15 -12 15
-20z m50 -44 c22 0 33 -25 17 -38 -25 -20 -57 -24 -72 -8 -9 8 -11 16 -4 18 5
2 11 10 12 18 2 8 7 22 12 30 8 13 10 13 13 -2 2 -10 12 -18 22 -18z m-690
-24 c0 -9 -30 -14 -35 -6 -4 6 3 10 14 10 12 0 21 -2 21 -4z m-80 -10 c0 -11
-19 -15 -25 -6 -3 5 1 10 9 10 9 0 16 -2 16 -4z m1525 -27 c10 -15 -1 -23 -20
-15 -9 3 -13 10 -10 16 8 13 22 13 30 -1z m-875 -79 c0 -11 5 -20 10 -20 6 0
15 -10 20 -22 5 -13 9 -17 9 -10 1 14 21 17 21 3 0 -22 -33 -19 -56 6 -24 26
-33 63 -14 63 6 0 10 -9 10 -20z m600 -2 c0 -16 -3 -19 -11 -11 -6 6 -8 16 -5
22 11 17 16 13 16 -11z m97 -31 c12 -8 11 -12 -6 -28 -11 -10 -25 -19 -31 -19
-15 0 -12 27 4 33 9 4 13 15 10 29 -2 13 -1 16 2 8 4 -8 13 -19 21 -23z m220
12 c-14 -8 -22 -8 -30 0 -8 8 -3 11 19 11 25 -1 27 -2 11 -11z m-1447 -19 c0
-5 -9 -10 -21 -10 -11 0 -17 5 -14 10 3 6 13 10 21 10 8 0 14 -4 14 -10z
m-105 -20 c-3 -5 -14 -10 -23 -10 -15 0 -15 2 -2 10 20 13 33 13 25 0z m1505
2 c0 -4 -16 -6 -35 -4 -19 2 -35 2 -35 0 0 -3 20 -15 45 -28 24 -12 42 -27 39
-31 -8 -14 -23 -10 -41 11 -12 13 -30 20 -55 20 -28 0 -38 4 -38 16 0 10 6 14
15 10 8 -3 15 -1 15 4 0 6 20 10 45 10 25 0 45 -4 45 -8z m-1382 -27 c-2 -1
-24 -6 -50 -9 -39 -6 -47 -5 -42 7 3 9 14 12 28 10 13 -3 27 0 31 7 5 8 10 8
21 -1 8 -6 13 -13 12 -14z m612 10 c0 -8 -9 -15 -20 -15 -11 0 -20 -7 -20 -15
0 -8 -4 -15 -10 -15 -14 0 -13 33 2 48 17 17 48 15 48 -3z m-1156 -20 c-7 -17
-7 -17 -29 -9 -13 5 -14 8 -3 15 21 14 38 10 32 -6z m976 -17 c0 -5 -4 -8 -10
-8 -5 0 -10 10 -10 23 0 18 2 19 10 7 5 -8 10 -18 10 -22z m107 0 c-3 -8 -6
-5 -6 6 -1 11 2 17 5 13 3 -3 4 -12 1 -19z m-1100 -38 c6 -96 6 -158 -1 -177
-7 -23 -40 -31 -51 -13 -8 13 -45 13 -45 1 0 -5 8 -12 18 -14 10 -3 6 -5 -10
-6 -17 -1 -28 4 -28 12 1 17 25 47 38 47 19 0 3 24 -28 42 -17 9 -30 23 -30
31 0 8 -7 20 -15 27 -19 16 -3 40 26 40 11 0 19 5 19 10 0 15 40 30 75 27 24
-2 30 -7 32 -27z m553 10 c0 -5 -4 -10 -10 -10 -5 0 -10 5 -10 10 0 6 5 10 10
10 6 0 10 -4 10 -10z m50 -6 c0 -9 -5 -14 -12 -12 -18 6 -21 28 -4 28 9 0 16
-7 16 -16z m87 -21 c2 -6 -3 -13 -12 -16 -10 -5 -15 0 -15 14 0 21 21 22 27 2z
m1241 -5 c-3 -7 -15 -15 -28 -16 -21 -3 -22 -2 -11 12 16 19 44 21 39 4z
m-910 -38 c10 -17 10 -20 -6 -20 -11 0 -18 7 -18 20 0 11 3 20 6 20 3 0 11 -9
18 -20z m-388 -25 c-14 -17 -50 -20 -50 -5 0 5 11 12 25 16 14 3 25 11 26 18
0 7 3 6 6 -2 3 -7 -1 -19 -7 -27z m80 15 c-8 -5 -17 -7 -19 -4 -3 3 1 9 9 14
8 5 17 7 19 4 3 -3 -1 -9 -9 -14z m1120 11 c0 -5 -6 -11 -12 -14 -18 -6 -39 3
-32 14 7 12 44 12 44 0z m119 -36 c12 -3 19 -11 16 -16 -8 -12 -55 -12 -55 1
0 6 -12 10 -26 10 -14 0 -23 4 -19 10 3 6 15 10 26 10 11 0 19 7 20 18 0 13 2
13 9 -5 5 -12 18 -24 29 -28z m-1164 15 c-27 -12 -43 -12 -25 0 8 5 22 9 30 9
10 0 8 -3 -5 -9z m1228 3 c-7 -2 -19 -2 -25 0 -7 3 -2 5 12 5 14 0 19 -2 13
-5z m-173 -18 c0 -8 7 -15 15 -15 8 0 15 -4 15 -9 0 -5 -15 -8 -32 -7 -27 1
-33 -2 -31 -19 1 -11 0 -14 -3 -7 -3 6 -12 12 -20 12 -8 0 -14 7 -14 15 0 8 6
15 14 15 7 0 19 7 26 15 7 8 16 15 21 15 5 0 9 -7 9 -15z m-303 -11 c-3 -3
-12 -4 -19 -1 -8 3 -5 6 6 6 11 1 17 -2 13 -5z m64 -9 c1 -16 -17 -17 -30 -2
-9 12 -7 14 9 13 11 0 21 -5 21 -11z m-1016 -15 c3 -5 -1 -10 -10 -10 -9 0
-13 5 -10 10 3 6 8 10 10 10 2 0 7 -4 10 -10z m1155 -17 c0 -16 -4 -23 -8 -17
-4 6 -14 14 -22 17 -12 4 -11 6 3 6 9 1 17 6 17 11 0 6 2 10 5 10 3 0 5 -12 5
-27z m-273 11 c-3 -3 -12 -4 -19 -1 -8 3 -5 6 6 6 11 1 17 -2 13 -5z m-770
-10 c-3 -3 -12 -4 -19 -1 -8 3 -5 6 6 6 11 1 17 -2 13 -5z m984 -7 c-6 -8 -8
-16 -6 -19 3 -3 -5 -4 -17 -3 -13 1 -31 3 -40 4 -33 2 -18 20 20 24 20 2 41 4
46 5 5 1 3 -4 -3 -11z m-221 -7 c0 -5 -4 -10 -10 -10 -5 0 -10 5 -10 10 0 6 5
10 10 10 6 0 10 -4 10 -10z m410 0 c0 -5 -9 -10 -21 -10 -11 0 -17 5 -14 10 3
6 13 10 21 10 8 0 14 -4 14 -10z m40 -5 c0 -8 -7 -15 -15 -15 -22 0 -18 -17 5
-23 13 -3 18 -10 14 -21 -7 -19 -49 -21 -68 -4 -17 16 -8 51 11 44 9 -4 17 1
20 14 6 23 33 27 33 5z m-400 -26 c0 -14 -16 -11 -29 5 -10 12 -8 13 8 9 12
-3 21 -9 21 -14z m60 11 c0 -5 -7 -7 -15 -4 -8 4 -15 8 -15 10 0 2 7 4 15 4 8
0 15 -4 15 -10z m-810 -5 c0 -2 -9 -9 -20 -15 -16 -9 -18 -8 -14 5 5 13 34 22
34 10z m1025 -6 c4 -6 4 -13 0 -17 -3 -3 -10 -1 -14 6 -4 8 -15 10 -26 6 -13
-5 -16 -4 -11 4 9 15 43 16 51 1z m329 -28 c-2 -2 -11 -1 -20 3 -14 5 -14 9
-3 22 12 14 14 14 20 -3 3 -10 5 -20 3 -22z m-401 17 c26 -15 37 -29 31 -40
-6 -10 -34 2 -34 14 0 6 -8 17 -17 24 -23 17 -10 18 20 2z m-28 -28 c21 0 34
-23 28 -52 -4 -24 -10 -28 -37 -28 l-31 0 25 20 25 20 -31 0 c-20 0 -34 6 -38
16 -4 12 -1 14 14 9 21 -7 28 9 9 21 -8 4 -7 9 2 15 9 6 15 3 17 -6 2 -8 9
-15 17 -15z m255 -25 c0 -9 -6 -12 -17 -8 -12 5 -14 3 -8 -8 6 -11 5 -11 -5
-2 -7 6 -9 16 -6 22 10 16 36 13 36 -4z m-450 -40 c0 -5 -5 -3 -10 5 -5 8 -10
20 -10 25 0 6 5 3 10 -5 5 -8 10 -19 10 -25z m500 15 c29 -25 38 -25 60 3 10
12 22 19 26 14 4 -4 -2 -14 -14 -23 -12 -8 -22 -22 -22 -30 0 -12 -4 -13 -22
-3 -26 14 -71 59 -59 59 4 0 18 -9 31 -20z m-647 3 c-7 -2 -19 -2 -25 0 -7 3
-2 5 12 5 14 0 19 -2 13 -5z m270 -30 c-7 -2 -19 -2 -25 0 -7 3 -2 5 12 5 14
0 19 -2 13 -5z m137 -9 c0 -8 -4 -12 -10 -9 -5 3 -10 10 -10 16 0 5 5 9 10 9
6 0 10 -7 10 -16z m141 -15 c10 -10 15 -19 10 -19 -5 0 -16 7 -25 15 -8 8 -24
15 -36 15 -12 0 -18 4 -15 10 9 14 42 3 66 -21z m-1054 -1 c-3 -8 -6 -5 -6 6
-1 11 2 17 5 13 3 -3 4 -12 1 -19z m1294 6 c12 -14 11 -16 -5 -13 -11 2 -21
10 -24 17 -5 17 13 15 29 -4z m-551 -4 c0 -5 -5 -10 -11 -10 -5 0 -7 5 -4 10
3 6 8 10 11 10 2 0 4 -4 4 -10z m65 -20 c3 -6 -1 -7 -9 -4 -18 7 -21 14 -7 14
6 0 13 -4 16 -10z m95 0 c0 -5 -2 -10 -4 -10 -3 0 -8 5 -11 10 -3 6 -1 10 4
10 6 0 11 -4 11 -10z m37 4 c-3 -3 -12 -4 -19 -1 -8 3 -5 6 6 6 11 1 17 -2 13
-5z m63 -20 c0 -2 -9 -4 -21 -4 -11 0 -18 4 -14 10 5 8 35 3 35 -6z m147 -10
c-3 -3 -12 -4 -19 -1 -8 3 -5 6 6 6 11 1 17 -2 13 -5z m-97 -44 c-8 -5 -23 -7
-32 -4 -31 10 -17 -27 15 -39 9 -3 17 -11 17 -17 0 -18 -18 -11 -38 15 -21 27
-48 33 -54 13 -3 -9 -9 -8 -21 4 -28 28 -20 33 56 35 49 2 67 -1 57 -7z m63 3
c-7 -2 -21 -2 -30 0 -10 3 -4 5 12 5 17 0 24 -2 18 -5z m-23 -102 c0 -12 -20
-25 -27 -18 -7 7 6 27 18 27 5 0 9 -4 9 -9z m110 -41 c0 -5 -4 -10 -10 -10 -5
0 -10 5 -10 10 0 6 5 10 10 10 6 0 10 -4 10 -10z m-220 -41 c0 -6 6 -9 13 -6
9 3 13 -5 13 -29 0 -38 -3 -40 -28 -20 -19 14 -25 66 -8 66 6 0 10 -5 10 -11z
m90 -14 c0 -12 -19 -12 -23 0 -4 9 -1 12 9 8 7 -3 14 -7 14 -8z m-347 -40 c-3
-9 -8 -14 -10 -11 -3 3 -2 9 2 15 9 16 15 13 8 -4z m347 -5 c0 -5 -9 -10 -21
-10 -11 0 -17 5 -14 10 3 6 13 10 21 10 8 0 14 -4 14 -10z m-310 -14 c0 -2 -7
-7 -16 -10 -8 -3 -12 -2 -9 4 6 10 25 14 25 6z m187 -11 c8 -9 13 -19 10 -22
-10 -10 -37 6 -37 22 0 19 7 19 27 0z m113 -15 c0 -5 -4 -10 -10 -10 -5 0 -10
5 -10 10 0 6 5 10 10 10 6 0 10 -4 10 -10z m-200 -21 c16 -30 8 -31 -13 -3
-10 13 -13 24 -8 24 6 0 15 -9 21 -21z m-263 -31 c-3 -8 -6 -5 -6 6 -1 11 2
17 5 13 3 -3 4 -12 1 -19z m238 -59 c4 -11 4 -23 1 -26 -3 -4 -6 -1 -6 5 0 7
-9 12 -20 12 -13 0 -18 5 -14 15 9 22 32 18 39 -6z m67 -126 c-4 -23 -2 -25
17 -20 14 3 21 1 21 -9 0 -8 5 -14 11 -14 5 0 7 -5 4 -10 -5 -8 -12 -7 -22 1
-11 10 -16 10 -22 0 -6 -9 -10 -6 -16 11 -4 12 -6 29 -5 37 1 8 -4 18 -12 22
-9 6 -7 9 8 9 18 0 20 -5 16 -27z m135 -29 c2 -13 1 -15 -4 -4 -3 8 -11 19
-17 23 -7 6 -6 7 4 4 8 -2 16 -12 17 -23z"/>
<path d="M2350 1470 c0 -5 5 -10 10 -10 6 0 10 5 10 10 0 6 -4 10 -10 10 -5 0
-10 -4 -10 -10z"/>
<path d="M2380 1445 c0 -8 4 -15 9 -15 5 0 11 7 15 15 3 9 0 15 -9 15 -8 0
-15 -7 -15 -15z"/>
<path d="M2430 1440 c0 -5 5 -10 10 -10 6 0 10 5 10 10 0 6 -4 10 -10 10 -5 0
-10 -4 -10 -10z"/>
<path d="M2475 1420 c3 -5 8 -10 11 -10 2 0 4 5 4 10 0 6 -5 10 -11 10 -5 0
-7 -4 -4 -10z"/>
<path d="M2395 1320 c3 -5 8 -10 11 -10 2 0 4 5 4 10 0 6 -5 10 -11 10 -5 0
-7 -4 -4 -10z"/>
<path d="M2300 1315 c0 -5 5 -17 10 -25 5 -8 10 -10 10 -5 0 6 -5 17 -10 25
-5 8 -10 11 -10 5z"/>
<path d="M2455 1300 c-20 -7 -20 -7 0 -12 16 -5 17 -6 3 -7 -18 -1 -26 -21 -9
-21 14 0 20 -37 8 -49 -13 -13 -3 -26 12 -16 6 3 11 17 11 30 0 13 6 28 14 32
23 13 -13 52 -39 43z"/>
<path d="M2325 1260 c3 -5 8 -10 11 -10 2 0 4 5 4 10 0 6 -5 10 -11 10 -5 0
-7 -4 -4 -10z"/>
<path d="M2350 1193 c0 -13 8 -23 22 -26 29 -8 29 -6 2 23 -23 24 -24 24 -24
3z"/>
<path d="M2840 1110 c0 -5 4 -10 9 -10 6 0 13 5 16 10 3 6 -1 10 -9 10 -9 0
-16 -4 -16 -10z"/>
<path d="M2928 913 c7 -3 16 -2 19 1 4 3 -2 6 -13 5 -11 0 -14 -3 -6 -6z"/>
<path d="M2121 2077 c2 -1 11 -8 20 -15 14 -10 18 -10 23 3 4 11 -1 15 -21 15
-14 0 -24 -1 -22 -3z"/>
<path d="M2138 1863 c7 -3 16 -2 19 1 4 3 -2 6 -13 5 -11 0 -14 -3 -6 -6z"/>
<path d="M1810 1815 c0 -8 9 -15 20 -15 24 0 27 15 4 24 -22 9 -24 8 -24 -9z"/>
<path d="M3195 1229 c-4 -5 1 -17 11 -24 18 -14 18 -14 -1 -16 -11 -1 -28 -1
-37 0 -25 3 -23 -20 2 -26 11 -3 20 -8 20 -12 0 -9 50 -61 59 -61 4 0 7 16 7
36 -1 31 -4 35 -23 31 -23 -4 -33 16 -14 27 10 7 3 43 -10 51 -4 3 -11 0 -14
-6z"/>
<path d="M3762 1043 c4 -22 43 -25 43 -3 0 8 -11 16 -23 18 -19 3 -23 0 -20
-15z"/>
<path d="M3880 1000 c0 -11 5 -20 10 -20 6 0 10 9 10 20 0 11 -4 20 -10 20 -5
0 -10 -9 -10 -20z"/>
<path d="M3312 815 c0 -16 2 -22 5 -12 2 9 2 23 0 30 -3 6 -5 -1 -5 -18z"/>
<path d="M3069 530 c-20 -13 -5 -22 21 -12 18 7 20 10 8 14 -8 4 -21 2 -29 -2z"/>
<path d="M3147 499 c-18 -20 -14 -75 4 -63 5 3 7 9 4 14 -3 4 2 10 9 13 8 3
17 1 20 -6 2 -7 5 -4 5 6 1 10 -6 20 -14 23 -12 5 -13 10 -4 20 18 21 -4 15
-24 -7z"/>
<path d="M3868 490 c15 -17 28 -26 30 -21 4 11 -33 51 -47 51 -5 0 3 -14 17
-30z"/>
<path d="M3720 470 c0 -11 -6 -20 -12 -20 -7 -1 -3 -9 9 -19 22 -18 63 -18 63
-1 0 12 -41 60 -51 60 -5 0 -9 -9 -9 -20z"/>
<path d="M3050 451 c0 -12 5 -21 10 -21 6 0 10 6 10 14 0 8 -4 18 -10 21 -5 3
-10 -3 -10 -14z"/>
<path d="M3663 453 c-22 -8 -15 -32 7 -26 11 3 20 12 20 19 0 14 -6 16 -27 7z"/>
<path d="M3216 422 c-2 -4 -1 -14 5 -22 11 -19 12 -53 0 -46 -5 4 -7 -3 -4
-14 3 -11 10 -20 15 -20 5 0 7 -4 3 -9 -3 -5 -2 -12 3 -15 4 -2 14 9 21 26 11
24 11 35 2 47 -6 9 -15 26 -21 39 -10 23 -16 27 -24 14z"/>
<path d="M3870 420 c11 -8 9 -9 -11 -5 -20 5 -27 1 -37 -19 -6 -14 -16 -26
-22 -26 -17 0 -11 -39 9 -59 20 -20 20 -19 39 14 15 24 17 36 9 44 -17 17 1
27 23 13 18 -11 20 -9 20 18 0 24 -4 30 -22 30 -19 0 -20 -2 -8 -10z"/>
<path d="M3110 390 c0 -14 15 -19 29 -11 9 6 7 10 -8 14 -12 3 -21 1 -21 -3z"/>
<path d="M3037 384 c-8 -8 1 -24 14 -24 5 0 9 7 9 15 0 15 -12 20 -23 9z"/>
<path d="M3650 374 c0 -19 39 -53 62 -54 9 0 18 8 20 18 2 12 -8 22 -35 35
-48 21 -47 21 -47 1z"/>
<path d="M3158 353 c7 -3 16 -2 19 1 4 3 -2 6 -13 5 -11 0 -14 -3 -6 -6z"/>
<path d="M3074 325 c-9 -21 -2 -26 13 -10 8 9 9 16 3 20 -6 3 -13 -1 -16 -10z"/>
<path d="M3033 323 c-16 -6 -17 -33 -3 -33 11 0 26 28 19 34 -2 2 -10 1 -16
-1z"/>
<path d="M3589 273 c6 -10 17 -27 25 -37 15 -18 16 -18 40 5 14 13 26 30 26
37 0 20 -27 14 -33 -8 -3 -11 -10 -20 -15 -20 -6 0 -14 9 -17 20 -3 11 -13 20
-21 20 -11 0 -12 -4 -5 -17z"/>
<path d="M3041 264 c0 -11 3 -14 6 -6 3 7 2 16 -1 19 -3 4 -6 -2 -5 -13z"/>
<path d="M3759 259 c-8 -5 -26 -6 -41 -3 -24 5 -28 2 -28 -18 0 -13 4 -29 9
-37 6 -9 5 -23 -2 -38 -7 -17 -7 -34 3 -63 10 -32 11 -42 0 -55 -7 -8 -10 -22
-6 -30 7 -20 114 -20 161 0 36 15 58 46 37 53 -15 5 -16 32 -2 32 6 0 10 27
10 60 0 57 -1 60 -25 60 -14 0 -25 5 -25 10 0 6 -9 10 -20 10 -11 0 -20 4 -20
9 0 13 -36 20 -51 10z m91 -91 c0 -17 -64 -88 -78 -88 -15 0 -16 17 -2 25 6 3
10 14 10 24 0 19 35 50 58 50 6 1 12 -5 12 -11z m30 -22 c0 -3 -4 -8 -10 -11
-5 -3 -10 -1 -10 4 0 6 5 11 10 11 6 0 10 -2 10 -4z m-133 -92 c-3 -3 -12 -4
-19 -1 -8 3 -5 6 6 6 11 1 17 -2 13 -5z"/>
<path d="M3076 235 c-9 -26 -7 -32 5 -12 6 10 9 21 6 23 -2 3 -7 -2 -11 -11z"/>
<path d="M3535 200 c-3 -6 -10 -8 -15 -5 -5 3 -11 1 -14 -4 -7 -11 39 -21 54
-11 8 5 7 10 -4 19 -10 8 -16 9 -21 1z"/>
<path d="M3522 95 c0 -16 2 -22 5 -12 2 9 2 23 0 30 -3 6 -5 -1 -5 -18z"/>
<path d="M3405 60 c-3 -5 -1 -10 4 -10 6 0 11 5 11 10 0 6 -2 10 -4 10 -3 0
-8 -4 -11 -10z"/>
<path d="M3460 10 c0 -5 9 -10 21 -10 11 0 17 4 14 10 -8 13 -35 13 -35 0z"/>
</g>
</svg>
